<svg width="127" height="30" viewBox="0 0 127 30" fill="none" xmlns="http://www.w3.org/2000/svg">
<g clip-path="url(#clip0_7289_37338)">
<path d="M24.4579 0.210449V13.0977C24.4579 15.0835 24.6281 16.9424 24.6841 18.8448C24.3437 16.9441 23.9474 15.0835 23.4369 13.1411L19.9819 0.210449H11.7778V23.366C11.7778 25.0145 11.6076 25.5205 9.73794 25.5205H8.43925C6.56958 25.5205 6.39941 25.0128 6.39941 23.366V0.210449H0V23.999C0 28.6472 1.52932 29.9983 7.25028 29.9983H10.1947C15.9157 29.9983 17.389 28.6455 17.389 23.999V23.1489L17.4316 23.0971V15.3808C17.4316 14.7645 17.4137 14.1766 17.389 13.6021V10.9515C17.6958 12.4095 18.0025 13.8025 18.4526 15.3808L22.6442 29.7896H29.9527V0.210449H24.4579Z" fill="#F15041"/>
<path d="M33.3516 0.210449H43.7187C49.4397 0.210449 50.913 1.56331 50.913 6.20978V13.1394C50.913 17.7441 49.4397 19.1387 43.7187 19.1387H39.7532V29.7862H33.3516V0.210449ZM42.4715 14.661C44.3412 14.661 44.5673 14.1115 44.5673 12.5064V6.84446C44.5673 5.19597 44.3412 4.68991 42.4715 4.68991H39.7532V14.661H42.4715Z" fill="#F15041"/>
<path d="M71.02 24.5903C71.02 26.4909 71.1902 28.3081 71.9269 29.7879H65.2991C64.6766 28.8158 64.6184 27.0421 64.6184 25.1832V19.7751C64.6184 17.9997 64.1661 17.1562 62.0702 17.1562H59.6341V29.7896H53.2324V0.210449H63.7675C69.4884 0.210449 71.0178 1.56331 71.0178 6.20978V9.37814C71.0178 12.7586 70.2251 14.3219 67.6188 14.9549C70.2251 15.5879 71.0178 17.2364 71.0178 20.5751V24.5886L71.02 24.5903ZM64.6184 6.84446C64.6184 5.19598 64.4482 4.68991 62.5785 4.68991H59.6341V12.6751H62.5785C64.3922 12.6751 64.6184 12.1256 64.6184 10.5206V6.84446Z" fill="#F15041"/>
<path d="M80.5384 12.7118H86.3735V17.1913H80.5384V25.3101H87.7327V29.7896H74.1367V0.210449H87.7327V4.68991H80.5384V12.7118ZM80.5384 4.68991V12.7118H86.3735V17.1913H80.5384V25.3101" fill="#F15041"/>
<path d="M100.421 21.7612C100.421 19.2676 99.4019 18.4225 95.5483 15.9723C91.2425 13.1831 89.7132 11.705 89.7132 7.60634V6.00129C89.7132 1.35314 91.1865 0.00195312 96.9075 0.00195312H99.6258C105.347 0.00195312 106.82 1.35481 106.82 6.00129V10.0999H100.815V6.63596C100.815 4.98748 100.589 4.48141 98.7749 4.48141H98.0942C96.2245 4.48141 96.0544 4.98915 96.0544 6.55245V7.56626C96.0544 10.0599 97.0732 10.8615 100.927 13.3551C105.233 16.1861 106.818 17.6225 106.818 21.7211V24.0026C106.818 28.6508 105.289 30.002 99.6235 30.002H96.9052C91.1843 30.002 89.7109 28.6491 89.7109 24.0026V19.0589H95.658V23.368C95.658 25.0164 95.8282 25.5225 97.6979 25.5225H98.4346C100.248 25.5225 100.416 25.0148 100.416 23.368V21.7629L100.421 21.7612Z" fill="#F15041"/>
<path d="M119.794 21.7612C119.794 19.2676 118.775 18.4225 114.921 15.9723C110.616 13.1831 109.086 11.705 109.086 7.60634V6.00129C109.086 1.35314 110.56 0.00195312 116.281 0.00195312H118.999C124.72 0.00195312 126.193 1.35481 126.193 6.00129V10.0999H120.188V6.63596C120.188 4.98748 119.962 4.48141 118.148 4.48141H117.467C115.598 4.48141 115.427 4.98915 115.427 6.55245V7.56626C115.427 10.0599 116.446 10.8615 120.3 13.3551C124.606 16.1861 126.191 17.6225 126.191 21.7211V24.0026C126.191 28.6508 124.662 30.002 118.997 30.002H116.278C110.557 30.002 109.084 28.6491 109.084 24.0026V19.0589H115.031V23.368C115.031 25.0164 115.201 25.5225 117.071 25.5225H117.808C119.621 25.5225 119.789 25.0148 119.789 23.368V21.7629L119.794 21.7612Z" fill="#F15041"/>
</g>
<defs>
<clipPath id="clip0_7289_37338">
<rect width="126.195" height="30" fill="white"/>
</clipPath>
</defs>
</svg>
